<?xml version="1.0" standalone="no"?>
<!DOCTYPE svg PUBLIC "-//W3C//DTD SVG 20010904//EN"
 "http://www.w3.org/TR/2001/REC-SVG-20010904/DTD/svg10.dtd">
<svg version="1.0" xmlns="http://www.w3.org/2000/svg"
 width="700.000000pt" height="700.000000pt" viewBox="0 0 700.000000 700.000000"
 preserveAspectRatio="xMidYMid meet">
<metadata>
Created by potrace 1.14, written by Peter Selinger 2001-2017
</metadata>
<g transform="translate(0.000000,700.000000) scale(0.100000,-0.100000)"
fill="#000000" stroke="none">
<path d="M1 4720 l0 -2280 37 -1 c20 0 248 0 507 0 259 0 477 -2 485 -4 14 -4
18 -46 11 -107 -1 -5 -235 -8 -521 -8 l-520 0 0 -487 0 -488 210 0 c203 0 210
1 211 20 0 11 1 111 1 223 l0 202 264 0 c204 0 264 3 265 13 1 18 1 180 0 197
-1 13 -37 15 -263 15 l-263 0 -1 92 c-1 60 2 93 10 95 6 2 145 4 308 3 193 0
299 3 301 10 2 5 3 31 2 57 l-2 47 71 3 71 3 0 1763 c0 969 2 1762 5 1762 4 0
136 -501 155 -590 2 -8 13 -50 25 -92 11 -43 23 -85 25 -95 2 -10 36 -144 75
-298 40 -154 76 -296 80 -315 5 -19 36 -143 70 -275 34 -132 63 -247 65 -255
2 -8 22 -86 45 -174 23 -87 43 -166 45 -175 2 -9 17 -68 34 -131 51 -198 163
-634 166 -653 2 -10 7 -27 10 -37 3 -10 8 -27 10 -37 17 -77 69 -270 75 -276
4 -4 200 -9 436 -11 236 -2 443 -7 459 -10 99 -22 145 -41 187 -75 15 -12 18
-12 23 0 5 16 111 422 119 460 18 81 31 119 39 119 5 0 19 -11 31 -24 36 -40
127 -106 188 -137 84 -42 175 -73 318 -109 184 -45 203 -49 209 -45 3 2 6 397
6 878 l-1 875 51 6 c27 4 79 9 115 12 79 7 478 7 574 0 161 -11 272 -25 371
-47 28 -7 55 -15 60 -20 12 -9 14 -747 3 -765 -4 -6 -26 -11 -50 -12 -24 -1
-53 -4 -65 -6 -11 -3 -59 -7 -104 -11 -46 -4 -87 -9 -90 -11 -11 -6 -39 7 -39
19 0 5 -11 33 -24 61 -44 92 -149 169 -261 192 -92 18 -127 21 -193 18 -90 -4
-110 -8 -175 -31 -148 -53 -202 -229 -99 -320 62 -56 204 -94 472 -129 30 -3
64 -8 75 -9 11 -2 45 -6 75 -10 63 -7 211 -29 270 -40 14 -3 41 -7 60 -10 19
-3 51 -10 70 -15 19 -5 46 -11 60 -14 l25 -5 0 -386 c0 -213 3 -389 8 -392 4
-2 185 -5 402 -5 l394 0 4 -21 c4 -21 -1 27 -8 68 -16 108 -65 229 -130 325
-121 178 -282 288 -545 374 l-125 41 0 162 -1 161 81 7 c44 3 96 8 115 10 37
5 94 10 200 20 36 3 76 8 90 10 14 2 61 7 105 10 108 9 117 12 109 38 -15 48
-108 225 -154 292 -107 153 -265 278 -445 350 l-100 40 0 1335 0 1335 -954 2
c-525 2 -951 0 -948 -3 3 -3 -1 -27 -8 -52 -8 -26 -46 -173 -85 -327 -67 -262
-98 -383 -200 -780 -23 -88 -43 -167 -45 -175 -2 -8 -17 -67 -34 -130 -16 -63
-57 -221 -90 -350 -33 -129 -78 -307 -101 -395 -23 -88 -43 -167 -45 -175 -2
-8 -20 -78 -40 -155 -20 -77 -38 -147 -40 -155 -7 -36 -34 -132 -37 -136 -2
-2 -21 63 -41 144 -21 81 -55 217 -78 302 -22 85 -42 162 -44 170 -6 26 -115
448 -152 590 -19 74 -37 142 -39 150 -6 26 -81 319 -119 465 -132 510 -206
797 -210 815 -2 8 -11 42 -20 75 -9 33 -20 74 -24 90 l-7 30 -952 2 -951 3 0
-2280z m4084 395 c-1 -404 -3 -737 -7 -740 -3 -3 -44 -12 -92 -21 -89 -15
-233 -54 -289 -78 l-32 -13 -74 -289 c-40 -159 -75 -296 -76 -304 -17 -75
-186 -714 -190 -718 -3 -4 -9 -2 -13 4 -4 5 -26 34 -48 64 -74 99 -118 198
-144 328 -17 84 -7 276 18 363 66 223 221 401 447 515 50 26 80 47 86 63 5 12
28 96 50 185 22 88 43 168 45 176 2 8 17 67 33 130 16 63 52 203 79 310 105
404 165 637 179 698 8 34 18 62 21 62 4 0 7 -331 7 -735z"/>
<path d="M4087 2603 c-2 -4 -4 -36 -3 -71 1 -35 -2 -66 -7 -69 -6 -3 -48 -7
-94 -9 -203 -7 -355 -60 -431 -149 l-24 -27 69 6 c37 4 86 9 108 11 51 5 130
13 225 21 41 4 82 8 90 10 8 1 27 3 41 3 24 1 25 3 25 64 l-1 62 40 0 c37 0
140 -10 175 -18 8 -2 31 -7 50 -11 46 -10 127 -50 165 -81 l30 -25 -228 0
-227 0 20 -41 21 -41 -23 8 c-34 10 -132 7 -172 -6 -22 -7 -39 -22 -49 -42
-29 -61 8 -87 165 -118 57 -12 119 -23 138 -26 19 -3 50 -10 68 -16 46 -14 50
-5 10 23 -57 40 -152 169 -125 169 19 0 65 -51 77 -86 11 -30 13 -31 63 -29
29 2 117 6 197 9 79 4 145 8 147 10 8 8 -32 115 -53 143 -13 17 -24 34 -24 37
0 3 54 6 120 6 l120 0 0 -75 0 -75 124 0 c76 0 127 4 131 10 9 14 9 93 0 119
-6 20 -14 21 -131 21 l-124 0 0 59 0 60 48 3 c45 3 42 4 -63 30 -60 15 -126
30 -145 33 -19 3 -55 10 -80 15 -41 9 -239 46 -300 56 -50 9 -135 26 -146 31
-7 2 -14 1 -17 -4z"/>
<path d="M1292 1892 l3 -546 195 -1 c107 0 202 1 210 3 13 3 15 68 13 525 -1
287 -2 532 -2 544 -1 22 -2 22 -211 22 l-210 0 2 -547z"/>
<path d="M2023 1895 c0 -393 3 -545 11 -546 33 -4 393 -5 403 -1 9 3 12 43 12
150 0 81 0 180 0 221 l1 73 48 -5 c98 -9 107 -18 268 -257 64 -96 119 -177
121 -180 8 -9 481 -5 475 5 -3 6 -24 39 -47 75 -23 36 -67 104 -98 152 -90
141 -170 216 -247 233 -35 8 -35 8 42 34 106 36 108 38 70 109 -31 58 -92 227
-92 255 0 15 20 18 187 33 70 6 73 3 79 -91 6 -85 -20 -150 -82 -212 l-54 -55
44 -61 c53 -75 170 -188 248 -239 31 -21 58 -38 60 -38 2 0 -7 34 -21 75 -13
41 -22 77 -20 79 4 4 247 17 352 20 l49 1 15 -45 c8 -25 25 -56 36 -69 76 -84
287 -91 354 -12 70 81 -14 156 -215 191 -357 61 -523 162 -537 327 -2 27 3 64
11 87 28 75 28 74 2 71 -13 -2 -60 -6 -104 -9 -43 -4 -95 -9 -114 -11 -30 -3
-39 2 -65 31 l-30 35 -544 2 -545 2 -15 58 c-12 47 -19 57 -37 57 l-21 0 0
-545z m749 302 c42 -18 58 -42 58 -89 0 -35 -22 -69 -56 -86 -43 -22 -310 -37
-322 -18 -3 5 -5 44 -4 85 1 42 1 88 2 104 l0 28 143 -4 c99 -3 153 -9 179
-20z"/>
<path d="M4949 2410 c23 -15 54 -42 69 -59 l27 -32 110 3 110 3 0 57 0 57
-179 0 -179 -1 42 -28z"/>
<path d="M6069 2268 c0 -2 -2 -14 -5 -28 -13 -77 9 -70 -214 -70 -153 0 -200
-3 -201 -12 -3 -37 -4 -534 -1 -541 10 -21 161 107 226 192 76 98 187 327 168
346 -3 3 4 8 16 12 19 4 21 12 20 54 0 40 -5 61 -9 47z"/>
<path d="M5020 2130 c-70 -115 -271 -181 -489 -160 -34 3 -61 4 -61 2 0 -2 15
-9 33 -17 53 -22 114 -82 142 -139 42 -86 34 -189 -21 -277 -41 -66 -155 -149
-224 -164 -66 -15 -21 -20 157 -19 244 1 432 17 587 50 38 8 71 12 74 9 3 -2
5 -18 4 -35 0 -16 5 -31 11 -31 32 -3 393 -5 403 -2 6 2 10 48 9 126 -1 128
-5 137 -45 102 -42 -36 -364 -163 -374 -147 -2 4 -3 171 -3 372 l1 365 -90 3
-89 3 -25 -41z"/>
<path d="M4380 2000 c8 -5 20 -10 25 -10 6 0 3 5 -5 10 -8 5 -19 10 -25 10 -5
0 -3 -5 5 -10z"/>
<path d="M3509 1512 c89 -126 262 -184 543 -183 124 0 210 7 256 21 30 9 32 9
-68 15 -61 4 -156 13 -210 21 -19 3 -49 7 -67 9 -132 19 -345 80 -432 124
l-44 23 22 -30z"/>
</g>
</svg>
